<svg viewBox="0 0 512 512" xmlns="http://www.w3.org/2000/svg">
  <rect width="512" height="512" rx="96" fill="#FDFBF7"/>
  <g transform="translate(96, 96)">
    <path fill="#E54B4B" d="M304,16H208a67.86,67.86,0,0,0-48,19.85A67.86,67.86,0,0,0,112,16H16A16,16,0,0,0,0,32V248a16,16,0,0,0,16,16H112a28,28,0,0,1,28,28,16,16,0,0,0,32,0,28,28,0,0,1,28-28h104a16,16,0,0,0,16-16V32A16,16,0,0,0,304,16ZM112,232H40V56h72a28,28,0,0,1,28,28V237.6A67.71,67.71,0,0,0,112,232Zm168,0H176a67.71,67.71,0,0,0-28,5.6V84a28,28,0,0,1,28-28h104Z"/>
  </g>
</svg>
